<?xml version="1.0" encoding="utf-8"?>
<!-- Generator: Adobe Illustrator 14.0.0, SVG Export Plug-In . SVG Version: 6.00 Build 43363)  -->
<!DOCTYPE svg PUBLIC "-//W3C//DTD SVG 1.1//EN" "http://www.w3.org/Graphics/SVG/1.1/DTD/svg11.dtd">
<svg version="1.1" id="Vrstva_1" xmlns="http://www.w3.org/2000/svg" xmlns:xlink="http://www.w3.org/1999/xlink" x="0px" y="0px"
	 width="192.68px" height="99.723px" viewBox="0 0 192.68 99.723" enable-background="new 0 0 192.68 99.723" xml:space="preserve">
<g>
	<path fill="#DDF1FB" d="M49.862,13.677c-3.023,0-5.958,0.376-8.765,1.075v29.044l25.839-25.84
		C61.85,15.228,56.038,13.677,49.862,13.677z"/>
	<path fill="#DDF1FB" d="M13.678,49.861c0,13.382,7.269,25.058,18.068,31.318V18.543C20.947,24.804,13.678,36.479,13.678,49.861z"/>
	<path fill="#DDF1FB" d="M41.097,57.146v27.824c2.807,0.699,5.742,1.075,8.765,1.075c8.468,0,16.251-2.917,22.416-7.791
		L46.133,52.11L41.097,57.146z"/>
	<path fill="#DDF1FB" d="M74.69,23.554L52.757,45.486l26.067,26.066c4.534-6.044,7.222-13.554,7.222-21.691
		C86.045,39.493,81.677,30.15,74.69,23.554z"/>
	<path fill="#324B85" d="M142.821,0c-0.026,0-0.052,0.002-0.077,0.002H49.939C49.913,0.002,49.888,0,49.862,0
		C22.325,0,0,22.324,0,49.861s22.325,49.861,49.862,49.861c0.039,0,0.077-0.003,0.116-0.003h92.727c0.039,0,0.077,0.003,0.116,0.003
		c27.535,0,49.859-22.324,49.859-49.861S170.356,0,142.821,0z M173.165,30.161h-60.689c6.453-9.92,17.63-16.484,30.346-16.484
		C155.536,13.677,166.711,20.241,173.165,30.161z M130.677,39.512v44.439c-14.01-4.991-24.041-18.366-24.041-34.09
		c0-3.598,0.532-7.069,1.51-10.35H130.677z M41.097,14.752c2.807-0.699,5.742-1.075,8.765-1.075c6.176,0,11.988,1.551,17.074,4.279
		l-25.839,25.84V14.752z M31.746,81.18c-10.799-6.261-18.068-17.937-18.068-31.318s7.269-25.058,18.068-31.318V81.18z
		 M49.862,86.046c-3.023,0-5.958-0.376-8.765-1.075V57.146l5.036-5.036l26.145,26.145C66.113,83.129,58.33,86.046,49.862,86.046z
		 M78.824,71.553L52.757,45.486L74.69,23.554c6.987,6.597,11.355,15.939,11.355,26.308C86.045,57.999,83.358,65.509,78.824,71.553z
		 M142.821,86.046c-0.942,0-1.873-0.048-2.797-0.118V39.512h37.471c0.978,3.28,1.51,6.752,1.51,10.35
		C179.004,69.846,162.803,86.046,142.821,86.046z"/>
	<path fill="#DDF1FB" d="M106.636,49.861c0,15.724,10.031,29.099,24.041,34.09V39.512h-22.531
		C107.168,42.792,106.636,46.264,106.636,49.861z"/>
	<path fill="#DDF1FB" d="M177.495,39.512h-37.471v46.416c0.924,0.07,1.854,0.118,2.797,0.118c19.982,0,36.184-16.2,36.184-36.185
		C179.004,46.264,178.472,42.792,177.495,39.512z"/>
	<path fill="#DDF1FB" d="M112.475,30.161h60.689c-6.453-9.92-17.629-16.484-30.344-16.484
		C130.105,13.677,118.928,20.241,112.475,30.161z"/>
</g>
</svg>
